<?xml version="1.0" encoding="UTF-8" standalone="no"?>
<!-- Created with Inkscape (http://www.inkscape.org/) -->

<svg
   width="35.588039mm"
   height="49.225403mm"
   viewBox="0 0 35.588039 49.225403"
   version="1.1"
   id="svg1"
   xml:space="preserve"
   xmlns="http://www.w3.org/2000/svg"
   xmlns:svg="http://www.w3.org/2000/svg"><defs
     id="defs1" /><g
     id="layer1"
     transform="translate(-7.6059801,-0.78729899)"><path
       style="fill:#ffffff;fill-opacity:1"
       d="m 28.682957,49.574708 c -0.602342,-0.32678 -0.727604,-0.57279 -0.727604,-1.429 0,-0.56885 -0.118185,-1.10731 -0.262633,-1.19658 -0.158662,-0.0981 -0.203325,-0.96838 -0.11282,-2.19843 0.0824,-1.11986 0.03556,-2.53807 -0.104091,-3.15157 -0.159395,-0.70026 -0.161817,-1.54723 -0.0065,-2.27543 0.159928,-0.74986 0.143108,-2.3667 -0.04758,-4.57308 -0.162235,-1.87722 -0.281646,-4.96093 -0.265357,-6.8527 0.01629,-1.89177 0.02961,-3.61818 0.02961,-3.83646 -3e-6,-1.80387 -0.313303,-12.95993 -0.404957,-14.4197899 -0.06395,-1.01865 -0.12355,-2.24277 -0.132436,-2.72028 -0.02593,-1.39345 -0.620041,-1.31065 -2.586317,0.36043 -2.618233,2.22516 -6.15117,4.4675299 -8.048004,5.1080999 -1.92331,0.64951 -4.422784,0.73029 -5.491783,0.17749 -0.405806,-0.20985 -1.1962468,-1.04715 -1.7565318,-1.86065 -0.829499,-1.2043999 -1.039535,-1.7671499 -1.130881,-3.0299999 -0.207818,-2.87306 0.653673,-4.06109 4.0158928,-5.53804 1.622098,-0.71255 2.374504,-0.71134 4.308448,0.007 1.934557,0.71851 2.735523,1.41346 2.735523,2.37345 0,1.24391 -0.767921,1.3997 -2.417428,0.49042 -2.454894,-1.35324 -4.361797,-1.00419 -5.359216,0.98098 -0.65201,1.2977 -0.524067,1.85779 0.726816,3.18171 0.990676,1.0485199 1.289236,1.2143899 2.129082,1.1828099 2.097298,-0.0788 4.229737,-1.4686299 8.122401,-5.2936699 2.009761,-1.97485 3.927267,-3.74224 4.261124,-3.92755 0.333857,-0.18530999 1.16837,-0.34114999 1.854474,-0.34629999 1.567314,-0.0118 1.795247,0.35538999 1.795247,2.89194999 0,2.36233 0.291593,2.51341 2.171138,1.12491 0.777124,-0.5741 1.945986,-1.31532 2.59747,-1.64716 0.651484,-0.33184 1.541704,-0.87299 1.978267,-1.20255 0.487145,-0.36775 1.376002,-0.67071 2.301105,-0.78432 1.402411,-0.17220999 1.552055,-0.13687 2.149397,0.50768 0.426378,0.46007 0.702785,1.1585 0.822873,2.07925 0.09946,0.76257 0.266044,2.04133 0.370194,2.84169 0.104149,0.80037 0.280229,1.59962 0.391288,1.77611 0.111059,0.17649 0.256105,6.7643499 0.322324,14.6396799 0.06622,7.87533 0.166851,14.39843 0.223626,14.49577 0.166844,0.28606 -0.05038,7.43188 -0.282458,9.29176 -0.194342,1.55746 -0.289403,1.75098 -1.088813,2.21651 -0.690214,0.40193 -1.054769,0.45865 -1.719791,0.26756 l -0.843912,-0.2425 v -2.46196 c 0,-1.35408 0.07096,-2.50597 0.157689,-2.55975 0.126594,-0.0785 0.06437,-12.67592 -0.109711,-22.20964 -0.0186,-1.01864 -0.0077,-2.38786 0.02421,-3.04271 0.101901,-2.09062 -0.153913,-10.6763599 -0.350804,-11.7739499 -0.334131,-1.86266 -1.403411,-2.52021 -2.366935,-1.45552 -0.263234,0.29087 -1.711386,1.13391 -3.218116,1.87342 -1.568142,0.76965 -2.873132,1.58998 -3.052017,1.91854 -0.463078,0.8505199 -0.389612,6.9263999 0.280473,23.1958499 0.122867,2.98318 0.225529,5.90021 0.228136,6.48229 0.01201,2.68179 0.409172,8.28616 0.641265,9.04902 0.523752,1.72152 -0.912836,2.51269 -2.751377,1.51527 z"
       id="path1" /></g></svg>
